# Blender v2.83.10 OBJ File: 'board.blend'
# www.blender.org
mtllib board.mtl
o Cube_Cube.004
v 0.039124 0.285524 0.020674
v 0.039124 1.726717 0.020674
v 0.004957 0.268387 -0.020674
v 0.004957 1.743853 -0.020674
v 2.912606 0.285524 0.020674
v 2.912606 1.726717 0.020674
v 2.946773 0.268387 -0.020674
v 2.946773 1.743853 -0.020674
v 0.004957 1.743853 0.020674
v 2.946773 1.743853 0.020674
v 2.946773 0.268387 0.020674
v 0.004957 0.268387 0.020674
v 0.004957 1.743853 0.020674
v 2.946773 1.743853 0.020674
v 2.946773 0.268387 0.020674
v 0.039124 0.285524 -0.000216
v 0.039124 1.726717 -0.000216
v 2.912606 1.726717 -0.000216
v 2.912606 0.285524 -0.000216
v 0.004957 0.247149 -0.020674
v 0.021839 0.247149 0.020674
v 2.946773 0.247149 -0.020674
v 2.926177 0.247149 0.020674
v 2.946773 0.268387 0.101396
v 0.021839 0.247149 0.056314
v 2.926177 0.247149 0.056314
v 0.004957 0.268387 0.020674
v 2.946773 0.268387 0.020674
v 0.004957 0.268387 0.101396
v 2.946773 0.268387 0.101396
v 0.004957 0.268387 0.101396
v 0.004957 0.268387 0.020674
v 2.914547 0.255272 0.100943
v 2.914547 0.255272 0.021127
v 0.037183 0.255272 0.100943
v 0.037183 0.255272 0.021127
v 0.007185 0.268387 0.020705
v 0.037183 0.255272 0.021127
v 0.067181 0.268387 0.021127
v 0.037183 0.255272 0.100943
v 0.007185 0.268387 0.101364
v 0.067181 0.268387 0.100943
v 2.944545 0.268387 0.101364
v 2.914547 0.255272 0.100943
v 2.884550 0.268387 0.100943
v 2.914547 0.255272 0.021127
v 2.944545 0.268387 0.020705
v 2.884550 0.268387 0.021127
vt 0.711192 0.448483
vt 0.766961 0.448483
vt 0.766961 0.504251
vt 0.711192 0.504251
vt 0.766961 0.560019
vt 0.711192 0.560019
vt 0.766961 0.615788
vt 0.711192 0.615788
vt 0.711840 0.670908
vt 0.711840 0.616435
vt 0.711840 0.616435
vt 0.711840 0.670908
vt 0.711192 0.504251
vt 0.711192 0.448483
vt 0.822729 0.560019
vt 0.822729 0.615788
vt nan nan
vt nan nan
vt nan nan
vt nan nan
vt nan nan
vt nan nan
vt nan nan
vt nan nan
vt 0.711192 0.615788
vt 0.711192 0.671556
vt 0.711192 0.671556
vt 0.766961 0.671556
vt 0.766961 0.615788
vt 0.766961 0.671556
vt 0.766313 0.670908
vt 0.766313 0.616435
vt 0.158817 0.527347
vt 0.403010 0.527347
vt 0.403010 0.771540
vt 0.158818 0.771540
vt 0.766313 0.670908
vt 0.766313 0.616435
vt 0.711192 0.615788
vt 0.711192 0.560019
vt 0.711192 0.615788
vt 0.711192 0.615788
vt 0.711192 0.671556
vt 0.711192 0.671556
vt 0.627540 0.448483
vt 0.627540 0.448483
vt 0.711192 0.615788
vt 0.711192 0.448483
vt 0.711192 0.448483
vt 0.655424 0.560019
vt 0.655424 0.615788
vt 0.655424 0.615788
vt 0.711192 0.671556
vt 0.711192 0.615788
vt 0.711192 0.671556
vt 0.627540 0.448483
vt 0.711192 0.615830
vt 0.711192 0.615830
vt 0.711192 0.616398
vt 0.711192 0.616967
vt 0.711192 0.670376
vt 0.711192 0.670945
vt 0.711192 0.670945
vt 0.711192 0.616398
vt 0.711192 0.671514
vt 0.711192 0.671514
vt 0.711192 0.670945
vt 0.711192 0.670376
vt 0.711192 0.616967
vt 0.711192 0.616399
vt 0.711192 0.616399
vt 0.711192 0.670945
vt 0.711192 0.670945
vt 0.711192 0.616398
vn -1.0000 0.0000 0.0000
vn 0.0000 0.0000 -1.0000
vn 1.0000 0.0000 0.0000
vn 0.0000 1.0000 0.0000
vn -0.9130 -0.3629 0.1864
vn 0.0000 0.0000 1.0000
vn 0.0000 -1.0000 0.0000
vn 0.8780 -0.4257 0.2187
vn -0.7179 0.6962 0.0000
vn 0.0000 0.9046 -0.4262
vn 0.7828 0.6222 0.0000
vn -0.0070 0.0161 0.9998
vn 0.0070 -0.0161 0.9998
vn -0.0070 -0.0161 0.9998
vn 0.0070 0.0161 0.9998
usemtl Material.001
s off
f 27/1/1 9/2/1 4/3/1 3/4/1
f 3/4/2 4/3/2 8/5/2 7/6/2
f 7/6/3 8/5/3 10/7/3 28/8/3
f 1/9/4 5/10/4 19/11/4 16/12/4
f 27/1/5 3/4/5 20/13/5 21/14/5
f 8/5/4 4/15/4 9/16/4 10/7/4
f 12/17/6 13/18/6 9/19/6 27/20/6
f 14/21/6 15/22/6 28/23/6 10/24/6
f 15/25/6 12/26/6 27/27/6 28/8/6
f 13/28/6 14/29/6 10/7/6 9/30/6
f 1/9/6 2/31/6 13/28/6 12/26/6
f 6/32/6 5/10/6 15/25/6 14/29/6
f 5/10/6 1/9/6 12/26/6 15/25/6
f 2/31/6 6/32/6 14/29/6 13/28/6
f 19/33/6 18/34/6 17/35/6 16/36/6
f 2/31/3 1/9/3 16/12/3 17/37/3
f 6/32/7 2/31/7 17/37/7 18/38/7
f 5/10/1 6/32/1 18/38/1 19/11/1
f 7/6/8 28/8/8 23/39/8 22/40/8
f 23/39/9 26/41/9 30/42/9 28/8/9
f 3/4/2 7/6/2 22/40/2 20/13/2
f 30/42/10 26/41/10 25/43/10 29/44/10
f 32/45/6 23/46/6 11/47/6 28/8/6
f 27/1/11 29/48/11 25/49/11 21/14/11
f 23/39/4 22/40/4 20/50/4 21/51/4 25/52/4 26/41/4
f 32/53/6 11/47/6 28/8/6 27/27/6
f 24/54/6 31/55/6 29/44/6 30/42/6
f 11/47/6 24/54/6 30/42/6 28/8/6
f 31/55/6 29/44/6 27/27/6 32/53/6
f 21/56/6 23/46/6 27/27/6 32/53/6
f 47/57/7 28/8/7 24/54/7 43/58/7
f 46/59/6 48/60/6 39/61/6 38/62/6 36/63/6 34/64/6
f 41/65/7 31/55/7 32/53/7 37/66/7
f 40/67/2 42/68/2 45/69/2 44/70/2 33/71/2 35/72/2
f 43/58/7 24/54/7 31/55/7 41/65/7 42/68/7 45/69/7
f 37/66/4 39/61/4 48/60/4 47/57/4 28/8/4 32/53/4
f 37/66/12 38/62/12 39/61/12
f 40/67/13 42/68/13 41/73/13
f 43/58/14 45/69/14 44/70/14
f 46/59/15 47/74/15 48/60/15
l 26 44
l 25 40
