# Blender v2.83.10 OBJ File: 'lockerModel.blend'
# www.blender.org
mtllib lockerModel.mtl
o Locker_-_Body_Cube.001
v -0.236298 0.003878 0.236298
v -0.236298 2.094112 0.236298
v -0.236298 0.003878 -0.236298
v -0.236298 2.094112 -0.236298
v 0.236298 0.056807 0.224331
v 0.236298 2.041183 0.224331
v 0.236298 0.056807 -0.224331
v 0.236298 2.041183 -0.224331
v 0.236298 2.094112 -0.236298
v 0.236298 0.003878 -0.236298
v 0.236298 0.003878 0.236298
v 0.236298 2.094112 0.236298
v 0.236298 0.019740 0.224331
v 0.236298 0.019740 -0.224331
v -0.205076 0.019740 0.224331
v -0.205076 0.019740 -0.224331
v 0.236298 2.075702 -0.224331
v 0.236298 2.075702 0.224331
v -0.205076 2.075702 -0.224331
v -0.205076 2.075702 0.224331
v -0.205076 1.638208 -0.224331
v -0.205076 1.638208 0.224331
v -0.205076 1.603158 -0.224331
v -0.205076 1.603158 0.224331
v 0.232235 1.638208 -0.224331
v 0.232235 1.638208 0.224331
v 0.232235 1.603158 -0.224331
v 0.232235 1.603158 0.224331
vt 0.275497 0.569327
vt 0.275497 0.552028
vt 0.292797 0.552028
vt 0.292797 0.569327
vt 0.275497 0.534728
vt 0.292797 0.534728
vt 0.275935 0.534290
vt 0.275935 0.517866
vt 0.275935 0.517866
vt 0.275935 0.534290
vt 0.292797 0.517428
vt 0.275497 0.517428
vt 0.275497 0.500129
vt 0.292797 0.500129
vt 0.310097 0.534728
vt 0.310097 0.517428
vt 0.258198 0.534728
vt 0.258198 0.517428
vt 0.292359 0.517866
vt 0.292359 0.534290
vt 0.275935 0.534290
vt 0.279270 0.534290
vt 0.279561 0.534290
vt 0.292359 0.534290
vt 0.292359 0.534290
vt 0.292359 0.517866
vt 0.292359 0.517866
vt 0.275935 0.517866
vt 0.279270 0.517866
vt 0.279270 0.517866
vt 0.279270 0.534290
vt 0.279561 0.517866
vt 0.279561 0.534290
vt 0.279561 0.517866
vn -1.0000 0.0000 0.0000
vn 0.0000 0.0000 -1.0000
vn 0.0000 0.0000 1.0000
vn 0.0000 -1.0000 0.0000
vn 0.0000 1.0000 0.0000
vn 1.0000 0.0000 0.0000
usemtl lockertest
s off
f 2/1/1 4/2/1 3/3/1 1/4/1
f 3/3/2 4/2/2 9/5/2 10/6/2
f 8/7/1 6/8/1 18/9/1 17/10/1
f 11/11/3 12/12/3 2/13/3 1/14/3
f 3/15/4 10/6/4 11/11/4 1/16/4
f 9/5/5 4/17/5 2/18/5 12/12/5
f 5/19/6 6/8/6 12/12/6 11/11/6 10/6/6 9/5/6 8/7/6 7/20/6
f 6/8/6 8/7/6 9/5/6 12/12/6
f 7/20/3 8/7/3 17/10/3 19/21/3 21/22/3 23/23/3 16/24/3 14/25/3
f 13/26/5 14/25/5 16/24/5 15/27/5
f 5/19/1 7/20/1 14/25/1 13/26/1
f 17/10/4 18/9/4 20/28/4 19/21/4
f 19/21/6 20/28/6 22/29/6 21/22/6
f 21/22/5 22/29/5 26/30/5 25/31/5
f 6/8/2 5/19/2 13/26/2 15/27/2 24/32/2 22/29/2 20/28/2 18/9/2
f 23/23/6 24/32/6 15/27/6 16/24/6
f 27/33/6 25/31/6 26/30/6 28/34/6
f 23/23/2 21/22/2 25/31/2 27/33/2
f 24/32/4 23/23/4 27/33/4 28/34/4
f 22/29/3 24/32/3 28/34/3 26/30/3
o Locker_-_Door_Cube.002
v 0.236879 0.004000 0.236000
v 0.236879 2.094000 0.236000
v 0.236879 0.004000 -0.236000
v 0.236879 2.094000 -0.236000
v 0.269064 0.004000 0.236000
v 0.269064 2.094000 0.236000
v 0.269064 0.004000 -0.236000
v 0.269064 2.094000 -0.236000
v 0.236879 0.004000 -0.193768
v 0.269064 0.004000 -0.193768
v 0.236879 0.004000 -0.093720
v 0.269064 0.004000 -0.093720
v 0.269064 1.168259 -0.193768
v 0.269064 1.168259 -0.093720
v 0.269064 1.012783 -0.193768
v 0.269064 1.012783 -0.093720
v 0.237577 1.168259 -0.193768
v 0.237577 1.168259 -0.093720
v 0.237577 1.012783 -0.193768
v 0.237577 1.012783 -0.093720
v 0.262330 1.168259 -0.093720
v 0.262330 1.168259 -0.193768
v 0.253262 1.168259 -0.093720
v 0.253262 1.168259 -0.193768
v 0.262330 1.091538 -0.181823
v 0.262330 1.122540 -0.190972
v 0.262330 1.091644 -0.182428
v 0.262330 1.091961 -0.183042
v 0.262330 1.092487 -0.183661
v 0.262330 1.093218 -0.184281
v 0.262330 1.094149 -0.184896
v 0.262330 1.095275 -0.185504
v 0.262330 1.096586 -0.186099
v 0.262330 1.098075 -0.186678
v 0.262330 1.099731 -0.187237
v 0.262330 1.101543 -0.187771
v 0.262330 1.103498 -0.188278
v 0.262330 1.105583 -0.188754
v 0.262330 1.107785 -0.189196
v 0.262330 1.110087 -0.189600
v 0.262330 1.112474 -0.189964
v 0.262330 1.114929 -0.190285
v 0.262330 1.117437 -0.190561
v 0.262330 1.119980 -0.190791
v 0.262330 1.122877 -0.096021
v 0.262330 1.091538 -0.104863
v 0.262330 1.120289 -0.096177
v 0.262330 1.117718 -0.096381
v 0.262330 1.115183 -0.096633
v 0.262330 1.112701 -0.096930
v 0.262330 1.110288 -0.097270
v 0.262330 1.107961 -0.097651
v 0.262330 1.105736 -0.098071
v 0.262330 1.103628 -0.098526
v 0.262330 1.101652 -0.099014
v 0.262330 1.099820 -0.099531
v 0.262330 1.098146 -0.100073
v 0.262330 1.096641 -0.100637
v 0.262330 1.095315 -0.101220
v 0.262330 1.094178 -0.101816
v 0.262330 1.093236 -0.102422
v 0.262330 1.092497 -0.103034
v 0.262330 1.091965 -0.103648
v 0.262330 1.091645 -0.104259
v 0.253262 1.122540 -0.190972
v 0.253262 1.091538 -0.181823
v 0.253262 1.119980 -0.190791
v 0.253262 1.117437 -0.190561
v 0.253262 1.114929 -0.190285
v 0.253262 1.112474 -0.189964
v 0.253262 1.110087 -0.189600
v 0.253262 1.107785 -0.189196
v 0.253262 1.105583 -0.188754
v 0.253262 1.103498 -0.188278
v 0.253262 1.101543 -0.187771
v 0.253262 1.099731 -0.187237
v 0.253262 1.098075 -0.186678
v 0.253262 1.096586 -0.186099
v 0.253262 1.095275 -0.185504
v 0.253262 1.094149 -0.184896
v 0.253262 1.093218 -0.184281
v 0.253262 1.092487 -0.183661
v 0.253262 1.091961 -0.183042
v 0.253262 1.091644 -0.182428
v 0.253262 1.091538 -0.104863
v 0.253262 1.122877 -0.096021
v 0.253262 1.091645 -0.104259
v 0.253262 1.091965 -0.103648
v 0.253262 1.092497 -0.103034
v 0.253262 1.093236 -0.102422
v 0.253262 1.094178 -0.101816
v 0.253262 1.095315 -0.101220
v 0.253262 1.096641 -0.100637
v 0.253262 1.098146 -0.100073
v 0.253262 1.099820 -0.099531
v 0.253262 1.101652 -0.099014
v 0.253262 1.103628 -0.098526
v 0.253262 1.105736 -0.098071
v 0.253262 1.107961 -0.097651
v 0.253262 1.110288 -0.097270
v 0.253262 1.112701 -0.096930
v 0.253262 1.115183 -0.096633
v 0.253262 1.117718 -0.096381
v 0.253262 1.120289 -0.096177
vt 0.286049 0.555579
vt 0.258728 0.555579
vt 0.258728 0.528257
vt 0.286049 0.528257
vt 0.266097 0.727842
vt 0.307236 0.727842
vt 0.307236 0.768981
vt 0.266097 0.768981
vt 0.260966 0.580069
vt 0.260966 0.572612
vt 0.260966 0.548037
vt 0.296146 0.548037
vt 0.296146 0.572612
vt 0.296146 0.580069
vt 0.296146 0.583216
vt 0.260966 0.583216
vt 0.293106 0.714896
vt 0.293106 0.743471
vt 0.264532 0.743471
vt 0.264532 0.714896
vt 0.514265 0.575360
vt 0.514265 0.522368
vt 0.514265 0.522368
vt 0.514265 0.522373
vt 0.514265 0.522387
vt 0.514265 0.522409
vt 0.514265 0.522440
vt 0.514265 0.522480
vt 0.514265 0.522529
vt 0.514265 0.522586
vt 0.514265 0.522651
vt 0.514265 0.522725
vt 0.514265 0.523517
vt 0.514265 0.523822
vt 0.514265 0.524141
vt 0.514265 0.524473
vt 0.514265 0.524814
vt 0.514265 0.525162
vt 0.514265 0.525514
vt 0.514265 0.525868
vt 0.514265 0.526221
vt 0.514265 0.526571
vt 0.514265 0.571158
vt 0.514265 0.571507
vt 0.514265 0.571859
vt 0.514265 0.572211
vt 0.514265 0.572560
vt 0.514265 0.572904
vt 0.514265 0.573241
vt 0.514265 0.573567
vt 0.514265 0.573881
vt 0.514265 0.574180
vt 0.514265 0.575003
vt 0.514265 0.575077
vt 0.514265 0.575142
vt 0.514265 0.575199
vt 0.514265 0.575248
vt 0.514265 0.575288
vt 0.514265 0.575319
vt 0.514265 0.575342
vt 0.514265 0.575355
vt 0.514265 0.575360
vt 0.303556 0.539690
vt 0.303556 0.581868
vt 0.261378 0.581868
vt 0.261378 0.578094
vt 0.261378 0.569154
vt 0.261378 0.539690
vt 0.308339 0.780065
vt 0.254916 0.780065
vt 0.254916 0.685024
vt 0.292235 0.685023
vt 0.292235 0.730897
vt 0.292235 0.737968
vt 0.303559 0.737968
vt 0.303559 0.730897
vt 0.303559 0.685023
vt 0.308339 0.685023
vt 0.266503 0.717390
vt 0.310202 0.717390
vt 0.310202 0.736580
vt 0.266503 0.736580
vt 0.277295 0.524609
vt 0.295893 0.524609
vt 0.295893 0.577600
vt 0.277295 0.577600
vt 0.514265 0.526571
vt 0.514265 0.571158
vt 0.514265 0.575360
vt 0.514265 0.522368
vt 0.514265 0.575360
vt 0.514265 0.575360
vt 0.275735 0.634677
vt 0.275735 0.651254
vt 0.275735 0.651254
vt 0.275735 0.651252
vt 0.275735 0.651248
vt 0.275735 0.651241
vt 0.275735 0.651231
vt 0.275735 0.651219
vt 0.275735 0.651203
vt 0.275735 0.651185
vt 0.275735 0.651165
vt 0.275735 0.651142
vt 0.275735 0.650884
vt 0.275735 0.650791
vt 0.275735 0.650693
vt 0.275735 0.650591
vt 0.275735 0.650486
vt 0.275735 0.650378
vt 0.275735 0.650269
vt 0.275735 0.650159
vt 0.275735 0.650048
vt 0.275735 0.649939
vt 0.275735 0.635992
vt 0.275735 0.635883
vt 0.275735 0.635772
vt 0.275735 0.635661
vt 0.275735 0.635551
vt 0.275735 0.635442
vt 0.275735 0.635336
vt 0.275735 0.635232
vt 0.275735 0.635132
vt 0.275735 0.635037
vt 0.275735 0.634789
vt 0.275735 0.634766
vt 0.275735 0.634746
vt 0.275735 0.634728
vt 0.275735 0.634713
vt 0.275735 0.634700
vt 0.275735 0.634690
vt 0.275735 0.634683
vt 0.275735 0.634679
vt 0.275735 0.634677
vt 0.514265 0.522368
vt 0.514265 0.575360
vt 0.514265 0.522368
vt 0.277295 0.524609
vt 0.295893 0.524609
vt 0.295893 0.524609
vt 0.295893 0.524609
vt 0.277295 0.577600
vt 0.295893 0.577600
vt 0.295893 0.577600
vt 0.295893 0.577600
vt 0.514265 0.571507
vt 0.514265 0.571859
vt 0.514265 0.572211
vt 0.514265 0.572560
vt 0.514265 0.572904
vt 0.514265 0.573241
vt 0.514265 0.573567
vt 0.514265 0.573881
vt 0.514265 0.574180
vt 0.514265 0.575003
vt 0.514265 0.575077
vt 0.514265 0.575142
vt 0.514265 0.575199
vt 0.514265 0.575248
vt 0.514265 0.575288
vt 0.514265 0.575319
vt 0.514265 0.575342
vt 0.514265 0.575355
vt 0.514265 0.522368
vt 0.514265 0.522373
vt 0.514265 0.522387
vt 0.514265 0.522409
vt 0.514265 0.522440
vt 0.514265 0.522480
vt 0.514265 0.522529
vt 0.514265 0.522586
vt 0.514265 0.522651
vt 0.514265 0.522725
vt 0.514265 0.523517
vt 0.514265 0.523822
vt 0.514265 0.524141
vt 0.514265 0.524473
vt 0.514265 0.524814
vt 0.514265 0.525162
vt 0.514265 0.525514
vt 0.514265 0.525868
vt 0.514265 0.526221
vn 0.0000 0.0000 -1.0000
vn 0.0000 0.0000 1.0000
vn 0.0000 -1.0000 0.0000
vn 0.0000 1.0000 0.0000
vn -1.0000 0.0000 0.0000
vn 1.0000 -0.0000 0.0000
vn 0.0000 -0.0506 0.9987
vn 0.0000 -0.9847 0.1743
vn 0.0000 -0.8856 0.4644
vn 0.0000 -0.7558 0.6547
vn 0.0000 -0.6379 0.7701
vn 0.0000 -0.5413 0.8408
vn 0.0000 -0.4642 0.8857
vn 0.0000 -0.4021 0.9156
vn 0.0000 -0.3510 0.9364
vn 0.0000 -0.3082 0.9513
vn 0.0000 -0.2715 0.9624
vn 0.0000 -0.2395 0.9709
vn 0.0000 -0.2111 0.9775
vn 0.0000 -0.1854 0.9827
vn 0.0000 -0.1617 0.9868
vn 0.0000 -0.1396 0.9902
vn 0.0000 -0.1188 0.9929
vn 0.0000 -0.0987 0.9951
vn 0.0000 -0.0793 0.9969
vn 0.0000 -0.0602 0.9982
vn 0.0000 -0.0707 -0.9975
vn 0.0000 -0.0899 -0.9959
vn 0.0000 -0.1095 -0.9940
vn 0.0000 -0.1297 -0.9916
vn 0.0000 -0.1507 -0.9886
vn 0.0000 -0.1729 -0.9849
vn 0.0000 -0.1967 -0.9805
vn 0.0000 -0.2225 -0.9749
vn 0.0000 -0.2510 -0.9680
vn 0.0000 -0.2831 -0.9591
vn 0.0000 -0.3197 -0.9475
vn 0.0000 -0.3624 -0.9320
vn 0.0000 -0.4133 -0.9106
vn 0.0000 -0.4750 -0.8800
vn 0.0000 -0.5513 -0.8343
vn 0.0000 -0.6464 -0.7630
vn 0.0000 -0.7621 -0.6475
vn 0.0000 -0.8887 -0.4584
vn 0.0000 -0.9850 -0.1724
vn 0.0000 -0.0610 -0.9981
usemtl lockertest
s off
f 31/35/7 32/36/7 36/37/7 35/38/7
f 33/39/8 34/40/8 30/41/8 29/42/8
f 38/43/9 40/44/9 33/45/9 29/46/9 39/47/9 37/48/9 31/49/9 35/50/9
f 32/51/10 30/52/10 34/53/10 36/54/10
f 51/55/11 52/56/11 93/57/11 95/58/11 96/59/11 97/60/11 98/61/11 99/62/11 100/63/11 101/64/11 102/65/11 103/66/11 104/67/11 105/68/11 106/69/11 107/70/11 108/71/11 109/72/11 110/73/11 111/74/11 112/75/11 94/76/11 113/77/11 115/78/11 116/79/11 117/80/11 118/81/11 119/82/11 120/83/11 121/84/11 122/85/11 123/86/11 124/87/11 125/88/11 126/89/11 127/90/11 128/91/11 129/92/11 130/93/11 131/94/11 132/95/11 114/96/11
f 30/97/11 32/98/11 31/99/11 37/100/11 39/101/11 29/102/11
f 36/103/12 34/104/12 33/105/12 40/106/12 44/107/12 42/108/12 41/109/12 43/110/12 38/111/12 35/112/12
f 38/113/12 43/114/12 44/115/12 40/116/12
f 47/117/12 45/118/12 46/119/12 48/120/12
f 53/121/9 74/122/9 113/77/9 94/76/9
f 52/56/9 51/55/9 46/123/9 45/124/9
f 49/125/13 51/55/13 114/96/13 73/126/13
f 50/127/12 49/128/12 73/129/12 75/130/12 76/131/12 77/132/12 78/133/12 79/134/12 80/135/12 81/136/12 82/137/12 83/138/12 84/139/12 85/140/12 86/141/12 87/142/12 88/143/12 89/144/12 90/145/12 91/146/12 92/147/12 74/148/12 53/149/12 55/150/12 56/151/12 57/152/12 58/153/12 59/154/12 60/155/12 61/156/12 62/157/12 63/158/12 64/159/12 65/160/12 66/161/12 67/162/12 68/163/12 69/164/12 70/165/12 71/166/12 72/167/12 54/168/12
f 41/169/9 42/170/9 49/125/9 50/171/9
f 43/172/8 41/173/8 50/174/8 52/175/8 45/118/8 47/117/8
f 44/176/10 43/172/10 47/117/10 48/120/10
f 42/177/7 44/176/7 48/120/7 46/119/7 51/178/7 49/179/7
f 113/77/14 74/122/14 92/180/14 115/78/14
f 115/78/15 92/180/15 91/181/15 116/79/15
f 116/79/16 91/181/16 90/182/16 117/80/16
f 117/80/17 90/182/17 89/183/17 118/81/17
f 118/81/18 89/183/18 88/184/18 119/82/18
f 119/82/19 88/184/19 87/185/19 120/83/19
f 120/83/20 87/185/20 86/186/20 121/84/20
f 121/84/21 86/186/21 85/187/21 122/85/21
f 122/85/22 85/187/22 84/188/22 123/86/22
f 123/86/23 84/188/23 83/189/23 124/87/23
f 124/87/24 83/189/24 82/190/24 125/88/24
f 125/88/25 82/190/25 81/191/25 126/89/25
f 126/89/26 81/191/26 80/192/26 127/90/26
f 127/90/27 80/192/27 79/193/27 128/91/27
f 128/91/28 79/193/28 78/194/28 129/92/28
f 129/92/29 78/194/29 77/195/29 130/93/29
f 130/93/30 77/195/30 76/196/30 131/94/30
f 131/94/31 76/196/31 75/197/31 132/95/31
f 132/95/32 75/197/32 73/126/32 114/96/32
f 93/57/33 54/198/33 72/199/33 95/58/33
f 95/58/34 72/199/34 71/200/34 96/59/34
f 96/59/35 71/200/35 70/201/35 97/60/35
f 97/60/36 70/201/36 69/202/36 98/61/36
f 98/61/37 69/202/37 68/203/37 99/62/37
f 99/62/38 68/203/38 67/204/38 100/63/38
f 100/63/39 67/204/39 66/205/39 101/64/39
f 101/64/40 66/205/40 65/206/40 102/65/40
f 102/65/41 65/206/41 64/207/41 103/66/41
f 103/66/42 64/207/42 63/208/42 104/67/42
f 104/67/43 63/208/43 62/209/43 105/68/43
f 105/68/44 62/209/44 61/210/44 106/69/44
f 106/69/45 61/210/45 60/211/45 107/70/45
f 107/70/46 60/211/46 59/212/46 108/71/46
f 108/71/47 59/212/47 58/213/47 109/72/47
f 109/72/48 58/213/48 57/214/48 110/73/48
f 110/73/49 57/214/49 56/215/49 111/74/49
f 111/74/50 56/215/50 55/216/50 112/75/50
f 112/75/51 55/216/51 53/121/51 94/76/51
f 52/56/52 50/171/52 54/198/52 93/57/52
